<svg width="136" height="53" viewBox="0 0 136 53" fill="none" xmlns="http://www.w3.org/2000/svg">
  <g clip-path="url(#clip0_617_150)">
  <rect width="136" height="53" fill="white"/>
  <path d="M27.5527 49.6221C26.4966 47.7463 25.3538 45.8941 24.1243 44.0656C22.8948 42.2371 21.5865 40.5111 20.1993 38.8875V49.6221H16.5581V33.2364H19.5609C20.0811 33.7566 20.6564 34.395 21.287 35.1516C21.9175 35.9083 22.5559 36.7201 23.2022 37.587C23.8642 38.4382 24.5184 39.3288 25.1647 40.2589C25.8109 41.1731 26.4178 42.0558 26.9853 42.907V33.2364H30.6502V49.6221H27.5527ZM34.43 49.6221V33.2364H45.4956V36.3339H38.1185V39.5495H44.668V42.576H38.1185V46.5246H46.0394V49.6221H34.43ZM60.9223 33.2364V36.3812H55.9806V49.6221H52.2921V36.3812H47.3504V33.2364H60.9223ZM74.911 34.9861C75.1001 35.6324 75.3051 36.3654 75.5257 37.1851C75.7622 37.989 76.0065 38.8244 76.2587 39.6914C76.5267 40.5584 76.7947 41.4253 77.0626 42.2923C77.3306 43.1592 77.5907 43.9632 77.8429 44.704C78.0478 43.9001 78.2527 43.0253 78.4577 42.0795C78.6783 41.1337 78.8833 40.1564 79.0724 39.1476C79.2616 38.1387 79.4429 37.1378 79.6162 36.1447C79.8054 35.1359 79.9788 34.1665 80.1364 33.2364H83.9668C83.4151 35.9792 82.7767 38.7614 82.0516 41.5829C81.3423 44.4045 80.5699 47.0842 79.7345 49.6221H76.3533C75.8016 48.1088 75.2657 46.5246 74.7455 44.8695C74.2253 43.1987 73.713 41.5278 73.2086 39.8569C72.7042 41.5278 72.1998 43.1987 71.6953 44.8695C71.1909 46.5246 70.6629 48.1088 70.1112 49.6221H66.73C65.8946 47.0842 65.1143 44.4045 64.3892 41.5829C63.6799 38.7614 63.0493 35.9792 62.4976 33.2364H66.4936C66.6512 34.1665 66.8246 35.1359 67.0137 36.1447C67.2029 37.1378 67.3999 38.1387 67.6048 39.1476C67.8098 40.1564 68.0147 41.1337 68.2196 42.0795C68.4403 43.0253 68.661 43.9001 68.8816 44.704C69.1654 43.9316 69.4412 43.112 69.7092 42.245C69.9772 41.378 70.2373 40.5111 70.4895 39.6441C70.7417 38.7771 70.9702 37.9417 71.1752 37.1378C71.3958 36.3339 71.5929 35.6167 71.7663 34.9861H74.911ZM89.2035 41.4174C89.2035 42.2213 89.2981 42.9464 89.4873 43.5927C89.6922 44.239 89.9759 44.7986 90.3385 45.2715C90.7168 45.7286 91.1739 46.0833 91.7098 46.3355C92.2458 46.5877 92.8605 46.7138 93.5541 46.7138C94.2319 46.7138 94.8388 46.5877 95.3747 46.3355C95.9264 46.0833 96.3836 45.7286 96.7461 45.2715C97.1244 44.7986 97.4082 44.239 97.5973 43.5927C97.8022 42.9464 97.9047 42.2213 97.9047 41.4174C97.9047 40.6135 97.8022 39.8884 97.5973 39.2421C97.4082 38.5801 97.1244 38.0205 96.7461 37.5634C96.3836 37.0905 95.9264 36.7279 95.3747 36.4757C94.8388 36.2235 94.2319 36.0974 93.5541 36.0974C92.8605 36.0974 92.2458 36.2314 91.7098 36.4994C91.1739 36.7516 90.7168 37.1141 90.3385 37.587C89.9759 38.0442 89.6922 38.6037 89.4873 39.2658C89.2981 39.9121 89.2035 40.6293 89.2035 41.4174ZM101.711 41.4174C101.711 42.8203 101.499 44.0577 101.073 45.1296C100.663 46.1857 100.096 47.0763 99.3707 47.8014C98.6456 48.5108 97.7786 49.0467 96.7698 49.4093C95.7767 49.7718 94.7048 49.9531 93.5541 49.9531C92.4349 49.9531 91.3788 49.7718 90.3857 49.4093C89.3927 49.0467 88.5257 48.5108 87.7849 47.8014C87.044 47.0763 86.4608 46.1857 86.0352 45.1296C85.6096 44.0577 85.3968 42.8203 85.3968 41.4174C85.3968 40.0145 85.6174 38.785 86.0588 37.7289C86.5002 36.657 87.0913 35.7585 87.8321 35.0334C88.5888 34.3083 89.4557 33.7645 90.433 33.402C91.4261 33.0394 92.4665 32.8581 93.5541 32.8581C94.6733 32.8581 95.7294 33.0394 96.7225 33.402C97.7155 33.7645 98.5825 34.3083 99.3234 35.0334C100.064 35.7585 100.647 36.657 101.073 37.7289C101.499 38.785 101.711 40.0145 101.711 41.4174ZM109.586 33.0473C112.045 33.0473 113.929 33.4886 115.237 34.3714C116.545 35.2383 117.2 36.594 117.2 38.4382C117.2 39.5889 116.932 40.5268 116.396 41.2519C115.875 41.9613 115.119 42.5208 114.126 42.9307C114.457 43.3405 114.804 43.8134 115.166 44.3493C115.529 44.8695 115.883 45.4212 116.23 46.0045C116.593 46.5719 116.939 47.1709 117.27 47.8014C117.601 48.4162 117.909 49.0231 118.193 49.6221H114.055C113.755 49.0861 113.448 48.5423 113.133 47.9906C112.833 47.4389 112.518 46.903 112.187 46.3828C111.872 45.8626 111.556 45.3739 111.241 44.9168C110.926 44.4439 110.611 44.0183 110.295 43.64H108.475V49.6221H104.786V33.4729C105.59 33.3153 106.418 33.2049 107.269 33.1419C108.136 33.0788 108.908 33.0473 109.586 33.0473ZM109.799 36.192C109.531 36.192 109.287 36.1999 109.066 36.2156C108.861 36.2314 108.664 36.2472 108.475 36.2629V40.7081H109.515C110.902 40.7081 111.895 40.5347 112.494 40.1879C113.093 39.8411 113.393 39.25 113.393 38.4146C113.393 37.6107 113.085 37.0432 112.471 36.7122C111.872 36.3654 110.981 36.192 109.799 36.192ZM130.227 49.6221C129.896 49.0861 129.502 48.5108 129.045 47.896C128.604 47.2655 128.115 46.6429 127.579 46.0281C127.059 45.3976 126.515 44.7986 125.948 44.2311C125.38 43.6479 124.813 43.1356 124.245 42.6942V49.6221H120.557V33.2364H124.245V39.4313C125.207 38.4225 126.168 37.3742 127.13 36.2866C128.107 35.1832 129.014 34.1665 129.849 33.2364H134.223C133.104 34.5605 131.977 35.8373 130.842 37.0668C129.723 38.2964 128.541 39.5338 127.296 40.779C128.604 41.8667 129.865 43.1592 131.079 44.6567C132.308 46.1542 133.483 47.8093 134.602 49.6221H130.227Z" fill="url(#paint0_linear_617_150)"/>
  <path d="M22.4743 11.3744C22.092 8.01487 19.1674 6.93743 15.4942 6.68012L15.4126 2.01226L12.5713 2.06215L12.6508 6.60698C11.9039 6.62012 11.1406 6.64821 10.3823 6.67659L10.3029 2.10164L7.46311 2.15113L7.54352 6.81767C6.92858 6.84097 6.32468 6.86296 5.73563 6.87363L5.735 6.85916L1.81616 6.92621L1.86988 9.96078C1.86988 9.96078 3.96736 9.88416 3.93315 9.92341C5.08403 9.90367 5.47025 10.5653 5.58927 11.1399L5.68235 16.4576C5.76177 16.4566 5.86545 16.4581 5.98303 16.4722C5.88838 16.4739 5.78705 16.4751 5.68289 16.4778L5.8122 23.9273C5.76801 24.2904 5.5652 24.8716 4.76115 24.887C4.79807 24.9186 2.69574 24.9226 2.69574 24.9226L2.19043 28.3256L5.88796 28.261C6.57606 28.2498 7.25329 28.2496 7.91802 28.2422L8.00165 32.9632L10.8399 32.9141L10.7583 28.243C11.5378 28.2455 12.2921 28.2386 13.0284 28.2251L13.1083 32.8747L15.9496 32.8248L15.8682 28.1121C20.6402 27.7547 23.9625 26.4929 24.2994 21.9999C24.5715 18.3821 22.8443 16.8 20.1213 16.1962C21.754 15.3286 22.7582 13.8327 22.4743 11.3744V11.3744ZM18.6754 21.5384C18.7385 25.0665 12.6906 24.7706 10.765 24.8061L10.6566 18.551C12.5827 18.5178 18.6114 17.8586 18.6754 21.5384ZM17.1999 12.7365C17.255 15.9463 12.2104 15.6597 10.6065 15.6878L10.5076 10.0148C12.1116 9.98664 17.1411 9.38861 17.1999 12.7365Z" fill="#F56B06"/>
  <path d="M26.4141 14.4323H29.9085V29.9556H26.4141V14.4323ZM44.1192 14.4323V17.4115H39.4376V29.9556H35.9432V17.4115H31.2616V14.4323H44.1192ZM52.0224 30.2692C49.4987 30.2692 47.5723 29.5673 46.2432 28.1636C44.929 26.7598 44.272 24.7662 44.272 22.1828C44.272 20.8985 44.4736 19.7561 44.8768 18.7555C45.28 17.7401 45.8325 16.8889 46.5344 16.2019C47.2363 15.5001 48.0725 14.9699 49.0432 14.6115C50.0139 14.2531 51.0667 14.0739 52.2016 14.0739C52.8587 14.0739 53.456 14.1262 53.9936 14.2307C54.5312 14.3203 55.0016 14.4323 55.4048 14.5667C55.808 14.6862 56.144 14.8131 56.4128 14.9475C56.6816 15.0819 56.8757 15.1865 56.9952 15.2611L55.9872 18.0835C55.5093 17.8297 54.9493 17.6131 54.3072 17.4339C53.68 17.2547 52.9632 17.1651 52.1568 17.1651C51.6192 17.1651 51.0891 17.2547 50.5664 17.4339C50.0587 17.6131 49.6032 17.9043 49.2 18.3075C48.8117 18.6958 48.4981 19.2035 48.2592 19.8307C48.0203 20.4579 47.9008 21.2196 47.9008 22.1156C47.9008 22.8324 47.9755 23.5044 48.1248 24.1316C48.2891 24.7438 48.5429 25.274 48.8864 25.722C49.2448 26.17 49.7077 26.5284 50.2752 26.7972C50.8427 27.051 51.5296 27.178 52.336 27.178C52.8437 27.178 53.2992 27.1481 53.7024 27.0884C54.1056 27.0286 54.464 26.9614 54.7776 26.8868C55.0912 26.7972 55.3675 26.7001 55.6064 26.5956C55.8453 26.491 56.0619 26.394 56.256 26.3044L57.2192 29.1044C56.7264 29.403 56.032 29.6718 55.136 29.9108C54.24 30.1497 53.2021 30.2692 52.0224 30.2692ZM60.9387 22.1828C60.9387 22.9444 61.0283 23.6313 61.2075 24.2436C61.4016 24.8558 61.6704 25.386 62.0139 25.834C62.3723 26.267 62.8053 26.603 63.3131 26.842C63.8208 27.0809 64.4032 27.2004 65.0603 27.2004C65.7024 27.2004 66.2773 27.0809 66.7851 26.842C67.3077 26.603 67.7408 26.267 68.0843 25.834C68.4427 25.386 68.7115 24.8558 68.8907 24.2436C69.0848 23.6313 69.1819 22.9444 69.1819 22.1828C69.1819 21.4212 69.0848 20.7342 68.8907 20.1219C68.7115 19.4947 68.4427 18.9646 68.0843 18.5315C67.7408 18.0835 67.3077 17.7401 66.7851 17.5011C66.2773 17.2622 65.7024 17.1427 65.0603 17.1427C64.4032 17.1427 63.8208 17.2697 63.3131 17.5235C62.8053 17.7625 62.3723 18.1059 62.0139 18.5539C61.6704 18.987 61.4016 19.5171 61.2075 20.1443C61.0283 20.7566 60.9387 21.4361 60.9387 22.1828ZM72.7883 22.1828C72.7883 23.5118 72.5867 24.6841 72.1835 25.6996C71.7952 26.7001 71.2576 27.5438 70.5707 28.2308C69.8837 28.9028 69.0624 29.4105 68.1067 29.754C67.1659 30.0974 66.1504 30.2692 65.0603 30.2692C64 30.2692 62.9995 30.0974 62.0587 29.754C61.1179 29.4105 60.2965 28.9028 59.5947 28.2308C58.8928 27.5438 58.3403 26.7001 57.9371 25.6996C57.5339 24.6841 57.3323 23.5118 57.3323 22.1828C57.3323 20.8537 57.5413 19.6889 57.9595 18.6883C58.3776 17.6729 58.9376 16.8217 59.6395 16.1347C60.3563 15.4478 61.1776 14.9326 62.1035 14.5891C63.0443 14.2457 64.0299 14.0739 65.0603 14.0739C66.1205 14.0739 67.1211 14.2457 68.0619 14.5891C69.0027 14.9326 69.824 15.4478 70.5259 16.1347C71.2277 16.8217 71.7803 17.6729 72.1835 18.6883C72.5867 19.6889 72.7883 20.8537 72.7883 22.1828ZM74.8052 14.4323H78.2996V29.9556H74.8052V14.4323ZM91.4127 29.9556C90.4122 28.1785 89.3295 26.4238 88.1647 24.6916C86.9999 22.9593 85.7604 21.3241 84.4463 19.7859V29.9556H80.9967V14.4323H83.8415C84.3343 14.9251 84.8793 15.5299 85.4767 16.2467C86.074 16.9635 86.6788 17.7326 87.2911 18.5539C87.9183 19.3603 88.538 20.2041 89.1503 21.0852C89.7626 21.9513 90.3375 22.7876 90.8751 23.594V14.4323H94.3471V29.9556H91.4127ZM97.0319 29.9556V14.4323H107.515V17.3667H100.526V20.4131H106.731V23.2804H100.526V27.0212H108.03V29.9556H97.0319ZM114.268 14.2531C116.597 14.2531 118.382 14.6713 119.621 15.5075C120.861 16.3289 121.48 17.6131 121.48 19.3603C121.48 20.4505 121.227 21.339 120.719 22.026C120.226 22.698 119.509 23.2281 118.568 23.6164C118.882 24.0046 119.21 24.4526 119.554 24.9604C119.897 25.4532 120.233 25.9758 120.562 26.5284C120.905 27.066 121.234 27.6334 121.548 28.2308C121.861 28.8132 122.152 29.3881 122.421 29.9556H118.501C118.217 29.4478 117.926 28.9326 117.628 28.41C117.344 27.8873 117.045 27.3796 116.732 26.8868C116.433 26.394 116.134 25.931 115.836 25.498C115.537 25.05 115.238 24.6468 114.94 24.2884H113.215V29.9556H109.72V14.6563C110.482 14.507 111.266 14.4025 112.072 14.3427C112.894 14.283 113.625 14.2531 114.268 14.2531ZM114.469 17.2323C114.215 17.2323 113.984 17.2398 113.775 17.2547C113.581 17.2697 113.394 17.2846 113.215 17.2995V21.5108H114.2C115.514 21.5108 116.455 21.3465 117.023 21.018C117.59 20.6894 117.874 20.1294 117.874 19.3379C117.874 18.5763 117.583 18.0387 117 17.7251C116.433 17.3966 115.589 17.2323 114.469 17.2323ZM127.999 27.29C128.491 27.29 128.895 27.2526 129.208 27.178C129.537 27.0884 129.798 26.9764 129.992 26.842C130.186 26.6926 130.321 26.5209 130.395 26.3268C130.47 26.1326 130.507 25.9161 130.507 25.6772C130.507 25.1694 130.268 24.7513 129.791 24.4228C129.313 24.0793 128.491 23.7134 127.327 23.3252C126.819 23.146 126.311 22.9444 125.803 22.7204C125.296 22.4814 124.84 22.1902 124.437 21.8468C124.034 21.4884 123.705 21.0628 123.451 20.5699C123.198 20.0622 123.071 19.4499 123.071 18.7331C123.071 18.0163 123.205 17.3742 123.474 16.8067C123.743 16.2243 124.123 15.7315 124.616 15.3283C125.109 14.9251 125.706 14.619 126.408 14.4099C127.11 14.1859 127.902 14.0739 128.783 14.0739C129.828 14.0739 130.731 14.1859 131.493 14.4099C132.255 14.6339 132.882 14.8803 133.375 15.1491L132.367 17.9043C131.934 17.6803 131.448 17.4862 130.911 17.3219C130.388 17.1427 129.753 17.0531 129.007 17.0531C128.17 17.0531 127.566 17.1726 127.192 17.4115C126.834 17.6355 126.655 17.9865 126.655 18.4643C126.655 18.7481 126.722 18.987 126.856 19.1811C126.991 19.3753 127.177 19.5545 127.416 19.7187C127.67 19.8681 127.954 20.0099 128.267 20.1443C128.596 20.2638 128.954 20.3907 129.343 20.5251C130.149 20.8238 130.851 21.1225 131.448 21.4212C132.046 21.7049 132.538 22.0409 132.927 22.4292C133.33 22.8174 133.628 23.2729 133.823 23.7956C134.017 24.3182 134.114 24.9529 134.114 25.6996C134.114 27.1481 133.606 28.2756 132.591 29.082C131.575 29.8734 130.044 30.2692 127.999 30.2692C127.312 30.2692 126.692 30.2244 126.139 30.1348C125.587 30.0601 125.094 29.963 124.661 29.8436C124.243 29.7241 123.877 29.5972 123.563 29.4628C123.265 29.3284 123.011 29.2014 122.802 29.082L123.787 26.3044C124.25 26.5582 124.818 26.7897 125.49 26.9988C126.177 27.1929 127.013 27.29 127.999 27.29Z" fill="#F56B06"/>
  </g>
  <defs>
  <linearGradient id="paint0_linear_617_150" x1="75.1665" y1="27.6221" x2="75.1665" y2="54.6221" gradientUnits="userSpaceOnUse">
  <stop stop-color="#969696"/>
  <stop offset="1" stop-color="#585858"/>
  </linearGradient>
  <clipPath id="clip0_617_150">
  <rect width="136" height="53" fill="white"/>
  </clipPath>
  </defs>
</svg>
