<svg width="72" height="72" viewBox="0 0 72 72" fill="none" xmlns="http://www.w3.org/2000/svg">
<g clip-path="url(#clip0_181_631)">
<path d="M69.2115 49.6797C69.2326 49.6368 69.2513 49.5929 69.2662 49.5479C73.5321 39.7023 72.7698 27.632 67.2293 18.4064C70.1872 14.8705 66.3451 9.80677 62.1435 11.766C61.4052 11.0115 60.63 10.2883 59.8267 9.60459C61.4035 5.31807 56.1409 1.80167 52.8634 5.00433C43.3371 0.194011 31.4887 0.25493 22.0151 5.16711C18.645 1.5957 12.9852 5.42499 15.0256 9.90595C13.8571 10.9278 12.751 12.0316 11.7311 13.1989C10.8505 14.2068 12.4458 15.5883 13.3203 14.5874C14.2691 13.5016 15.2972 12.4744 16.383 11.5225C18.4828 13.037 21.5274 12.2655 22.6794 9.95365C26.481 11.0479 30.1113 12.6184 33.4942 14.6341C33.211 15.6554 33.3267 16.7959 33.8126 17.7387C31.0284 20.1438 28.521 22.8644 26.3437 25.8461C24.3336 25.2387 22.1181 26.2553 21.244 28.1589C16.8113 28.1827 12.3648 28.6595 7.99916 29.5822C7.61367 28.8639 7.02925 28.2686 6.32073 27.8699C7.14095 24.6713 8.44008 21.6286 10.19 18.8153C10.8872 17.694 9.12721 16.5284 8.39802 17.7006C6.53754 20.6916 5.15568 23.9262 4.28172 27.3264C-0.773258 27.4122 -1.6219 34.4054 3.19039 35.7506C3.11948 45.7033 7.42261 55.3796 14.8845 61.9712C13.3279 66.176 18.3813 69.6443 21.7163 66.6786C31.4489 71.8538 43.7492 71.8545 53.4824 66.6802C56.8743 70.0348 62.3069 66.2872 60.3963 61.9017C64.2421 58.484 67.2296 54.3036 69.2115 49.6797ZM67.882 47.3198C64.9611 44.4179 61.7647 41.7855 58.352 39.4747C58.8366 37.9565 58.4154 36.2484 57.2836 35.1277C60.1534 30.3562 62.4062 25.2398 63.9921 19.8952C64.5205 19.897 65.0285 19.7995 65.4966 19.6231C70.3559 27.8299 71.2446 38.4112 67.882 47.3198ZM19.3264 59.248C18.4383 50.5499 19.9966 41.8723 23.8533 34.0304C26.2493 34.778 28.8389 33.2025 29.3042 30.7431C36.58 31.64 43.5873 33.776 50.1634 37.1027C49.8471 38.332 50.109 39.6875 50.8624 40.7102C43.4498 50.1011 33.6653 57.1675 22.467 61.2175C21.7884 60.1431 20.6473 59.3914 19.3264 59.248ZM52.139 38.1719C52.139 36.9762 53.1047 36.0034 54.2917 36.0034C57.1474 36.1223 57.1465 40.2219 54.2917 40.3403C53.1047 40.3403 52.139 39.3676 52.139 38.1719ZM66.154 15.6165C66.154 16.8123 65.1883 17.785 64.0014 17.785C61.1455 17.6661 61.1462 13.5666 64.0014 13.4481C65.1883 13.4481 66.154 14.4208 66.154 15.6165ZM60.5311 13.1359C59.0727 15.185 59.7496 18.1473 61.9483 19.3652C60.4121 24.5206 58.2342 29.4558 55.4636 34.059C54.8844 33.8924 54.2414 33.851 53.6459 33.9422C50.7499 27.7582 46.5361 22.1882 41.3886 17.739C41.875 16.7957 41.9909 15.6571 41.7073 14.6344C44.9655 12.6932 48.4556 11.1633 52.1052 10.0758C53.3182 12.4177 56.5722 13.0789 58.5924 11.3258C59.2619 11.9018 59.9101 12.5069 60.5311 13.1359ZM35.448 15.7799C35.448 14.5842 36.4137 13.6114 37.6007 13.6114C40.4565 13.7303 40.4557 17.8297 37.6007 17.9482C36.4137 17.9482 35.448 16.9755 35.448 15.7799ZM55.8575 5.87829C57.0447 5.87829 58.0104 6.85102 58.0104 8.04674C57.8919 10.9234 53.8229 10.9227 53.7048 8.04674C53.7048 6.85102 54.6705 5.87829 55.8575 5.87829ZM18.8646 10.215C17.6776 10.215 16.7119 9.24232 16.7119 8.0466C16.8304 5.16978 20.8994 5.17076 21.0174 8.0466C21.0174 9.24232 20.0516 10.215 18.8646 10.215ZM23.1237 7.88481C23.1127 7.59189 23.0725 7.30671 23.0055 7.03152C31.8384 2.46376 42.8732 2.38413 51.7742 6.81908C51.6598 7.20162 51.5972 7.6061 51.5951 8.02493C47.7562 9.16058 44.0855 10.7647 40.6586 12.8029C39.0114 11.099 36.1907 11.0984 34.5429 12.8028C30.9718 10.6786 27.1384 9.02749 23.1237 7.88481ZM35.2096 19.3203C36.6365 20.2942 38.5644 20.2943 39.9914 19.3205C44.906 23.5638 48.9319 28.8756 51.7051 34.774C51.5171 34.9184 51.3415 35.0784 51.18 35.2516C44.247 31.7351 36.8484 29.4992 29.1634 28.5997C28.9559 27.9716 28.6075 27.4077 28.1553 26.9461C30.2178 24.1443 32.5848 21.5853 35.2096 19.3203ZM25.1169 27.7751C26.3039 27.7751 27.2696 28.7478 27.2696 29.9435C27.1511 32.8203 23.0821 32.8195 22.964 29.9435C22.9642 28.7478 23.9299 27.7751 25.1169 27.7751ZM2.09048 31.6044C2.09048 30.4086 3.05617 29.4359 4.24317 29.4359C7.09889 29.5548 7.09804 33.6542 4.24317 33.7727C3.05631 33.7728 2.09048 32.8001 2.09048 31.6044ZM5.30059 35.7498C5.30059 35.7498 8.50564 35.0508 8.50564 31.6322C8.50564 31.6322 16.7298 30.3176 20.8676 30.2715C20.9453 31.2937 21.3818 32.2162 22.0514 32.9124C17.9393 41.185 16.2807 50.3569 17.2354 59.5478C16.8243 59.7192 16.4459 59.9535 16.1113 60.2382C9.22724 54.0712 5.30059 43.7384 5.30059 35.7498ZM18.8646 65.6695C17.6776 65.6695 16.7119 64.6968 16.7119 63.5011C16.7119 62.3054 17.6776 61.3326 18.8646 61.3326C20.0357 61.3326 21.0174 62.347 21.0174 63.5011C21.0174 64.6968 20.0516 65.6695 18.8646 65.6695ZM37.6007 68.466C32.4794 68.466 27.4152 67.2395 22.8889 64.9109C23.0726 64.3843 23.1537 63.7844 23.1179 63.2256C34.702 59.0501 44.8248 51.7529 52.4932 42.05C53.1232 42.3455 53.8223 42.4811 54.5169 42.4446C54.9857 44.1845 55.3561 45.9596 55.6186 47.7346C55.8197 49.0933 57.9079 48.7897 57.7063 47.4259C57.4276 45.5412 57.033 43.6563 56.532 41.8101C56.7843 41.6531 57.0186 41.4701 57.2322 41.2654C60.7534 43.6558 64.0362 46.4 67.0103 49.437C65.1658 53.5144 62.4813 57.2062 59.0706 60.2568C58.7334 60.0035 58.3573 59.7998 57.9537 59.6549C58.161 57.6933 58.2514 55.7126 58.221 53.7537C58.1996 52.3752 56.0894 52.4076 56.1109 53.7863C56.1402 55.6693 56.053 57.5733 55.8526 59.4589C53.364 59.8547 51.7363 62.4352 52.422 64.8537C47.8674 67.2192 42.7638 68.466 37.6007 68.466ZM56.522 65.853C55.335 65.853 54.3693 64.8803 54.3693 63.6845C54.4878 60.8077 58.5568 60.8087 58.6748 63.6845C58.6748 64.8803 57.7092 65.853 56.522 65.853Z" fill="#F56B06"/>
</g>
<defs>
<clipPath id="clip0_181_631">
<rect width="72" height="72" fill="white"/>
</clipPath>
</defs>
</svg>
