<svg width="72" height="72" viewBox="0 0 72 72" fill="none" xmlns="http://www.w3.org/2000/svg">
<path d="M55.4464 20.0952L63.4744 12.0744C63.8124 11.7364 64.0023 11.278 64.0023 10.8C64.0023 10.322 63.8124 9.86361 63.4744 9.52562C63.1365 9.18762 62.678 8.99774 62.2 8.99774C61.7221 8.99774 61.2636 9.18762 60.9257 9.52561L52.2856 18.2016C47.5765 15.7074 42.329 14.4023 37 14.4C24.184 14.4 12.4624 21.9456 4.84484 35.1C4.68544 35.3732 4.60144 35.6838 4.60144 36C4.60144 36.3163 4.68544 36.6269 4.84484 36.9C8.18682 42.8896 12.8688 48.025 18.5248 51.9048L10.5256 59.9256C10.1906 60.2652 10.0027 60.723 10.0027 61.2C10.0027 61.677 10.1906 62.1349 10.5256 62.4744C10.8643 62.8112 11.3225 63.0003 11.8 63.0003C12.2776 63.0003 12.7358 62.8112 13.0744 62.4744L21.7504 53.8344C26.452 56.3104 31.6863 57.6029 37 57.6C49.816 57.6 61.5377 50.0544 69.1553 36.9C69.3147 36.6269 69.3987 36.3163 69.3987 36C69.3987 35.6838 69.3147 35.3732 69.1553 35.1C65.8051 29.1073 61.1129 23.9716 55.4464 20.0952ZM8.49524 36C15.4576 24.5448 25.7752 18 37 18C41.3489 18.0043 45.6408 18.9886 49.5569 20.88L44.5168 25.92C42.0937 24.1128 39.1007 23.2386 36.0858 23.4576C33.0708 23.6765 30.2355 24.9739 28.0989 27.1123C25.9623 29.2507 24.6672 32.087 24.4507 35.1021C24.2342 38.1173 25.1108 41.1095 26.92 43.5312L21.16 49.2912C15.9668 45.9005 11.6315 41.3507 8.49524 36ZM46 36C46.0012 37.6262 45.5614 39.2222 44.7274 40.6183C43.8935 42.0143 42.6966 43.1581 41.2642 43.9279C39.8317 44.6977 38.2174 45.0646 36.5929 44.9897C34.9685 44.9148 33.3947 44.4008 32.0392 43.5024L44.5024 31.0392C45.4787 32.5095 45.9997 34.2351 46 36ZM28 36C27.9989 34.3738 28.4387 32.7778 29.2726 31.3817C30.1066 29.9857 31.3035 28.8419 32.7359 28.0721C34.1684 27.3024 35.7827 26.9354 37.4072 27.0103C39.0316 27.0853 40.6054 27.5993 41.9608 28.4976L29.4976 40.9608C28.5213 39.4905 28.0004 37.7649 28 36ZM37 54C32.6512 53.9958 28.3593 53.0114 24.4432 51.12L29.4832 46.08C31.9064 47.8873 34.8994 48.7614 37.9143 48.5425C40.9293 48.3235 43.7646 47.0261 45.9012 44.8877C48.0378 42.7494 49.3329 39.913 49.5494 36.8979C49.7659 33.8828 48.8893 30.8905 47.08 28.4688L52.84 22.7088C58.0333 26.0995 62.3686 30.6493 65.5048 36C58.5424 47.4552 48.2032 54 37 54Z" fill="#F56B06"/>
</svg>
