<svg width="27" height="2" viewBox="0 0 31 25" fill="none" xmlns="http://www.w3.org/2000/svg">
  <path d="M27.3286 6.20128C27.3472 6.47154 27.3472 6.74179 27.3472 7.01454C27.3472 15.3252 21.0639 24.91 9.57461 24.91V24.905C6.18064 24.91 2.85717 23.9311 0 22.0854C0.493511 22.1452 0.989496 22.1751 1.48672 22.1763C4.29936 22.1788 7.03161 21.2285 9.24437 19.4787C6.57149 19.4277 4.22762 17.6729 3.40881 15.111C4.34512 15.2929 5.30988 15.2555 6.22888 15.0027C3.31481 14.4099 1.21832 11.8318 1.21832 8.83784V8.75813C2.0866 9.24509 3.05878 9.51535 4.05322 9.54524C1.30861 7.69828 0.462589 4.02179 2.11999 1.14736C5.29133 5.07666 9.97041 7.46538 14.9933 7.7182C14.4899 5.53373 15.1776 3.24465 16.8004 1.70905C19.3162 -0.672201 23.2729 -0.550149 25.6378 1.98179C27.0367 1.70406 28.3775 1.18721 29.6045 0.454906C29.1382 1.9108 28.1623 3.14751 26.8586 3.93337C28.0967 3.78641 29.3064 3.45263 30.4456 2.94326C29.607 4.20861 28.5507 5.3108 27.3286 6.20128Z" fill="#1C7ED9"/>
</svg>
