<svg width="128" height="128" viewBox="0 0 128 128" fill="none" xmlns="http://www.w3.org/2000/svg">
<path d="M101.14 52.6241C102.895 40.9607 93.9612 34.6907 81.7457 30.5079L85.7082 14.7083L76.0333 12.3115L72.1755 27.6948C69.632 27.0647 67.0197 26.4704 64.4239 25.8814L68.3093 10.3968L58.6399 8L54.6746 23.7941C52.5693 23.3175 50.5026 22.8464 48.4965 22.3506L48.5075 22.3013L35.165 18.9896L32.5913 29.2615C32.5913 29.2615 39.7696 30.8968 39.618 30.9982C43.5365 31.9706 44.2446 34.5482 44.1261 36.5916L39.6125 54.5908C39.8825 54.6593 40.2325 54.7579 40.6183 54.9113C40.2959 54.8319 39.9515 54.7442 39.596 54.6593L33.2691 79.8735C32.7896 81.0569 31.5744 82.8318 28.8354 82.158C28.9318 82.2977 21.803 80.4131 21.803 80.4131L17 91.422L29.5904 94.5418C31.9326 95.1253 34.228 95.7361 36.4876 96.3113L32.4838 112.292L42.1477 114.689L46.113 98.878C48.7528 99.5902 51.3155 100.248 53.8231 100.867L49.8716 116.603L59.5465 119L63.5504 103.05C80.0482 106.153 92.4539 104.901 97.6758 90.0687C101.884 78.1259 97.4663 71.2369 88.7862 66.7446C95.1075 65.2956 99.8692 61.1622 101.14 52.6241V52.6241ZM79.0341 83.4372C76.0443 95.3801 55.8154 88.9238 49.2571 87.3049L54.5699 66.1337C61.1282 67.7608 82.159 70.9821 79.0341 83.4372ZM82.0267 52.4515C79.2986 63.3151 62.4619 57.7957 57.0003 56.4425L61.8171 37.2409C67.2788 38.594 84.8677 41.1195 82.0267 52.4515Z" fill="#F56B06"/>
<path fill-rule="evenodd" clip-rule="evenodd" d="M64.4238 25.8814C66.1843 26.2808 67.9524 26.6827 69.7014 27.0966C70.5312 27.2929 71.3567 27.4919 72.1751 27.6946C72.1752 27.6947 72.175 27.6946 72.1751 27.6946L76.0332 12.3115L85.7081 14.7082L81.7456 30.5079C93.9612 34.6906 102.895 40.9606 101.14 52.6241C100.324 58.1051 98.0697 61.771 94.8876 64.0768C93.1128 65.3628 91.0495 66.2258 88.7861 66.7446C90.9391 67.8588 92.8299 69.1205 94.3918 70.5702C99.1269 74.9652 100.84 81.0881 97.6757 90.0687C92.4539 104.901 80.0481 106.153 63.5504 103.05L59.5465 119L59.5452 119L49.8716 116.603L53.8231 100.867C53.0054 100.665 52.1818 100.459 51.3516 100.248C51.1434 100.195 50.9348 100.142 50.7257 100.089C49.2121 99.7022 47.676 99.2997 46.1129 98.8779L42.1476 114.689L42.1462 114.688L32.4837 112.292L36.4875 96.3113C35.5845 96.0814 34.6757 95.8458 33.7605 95.6086C32.3857 95.2522 30.9965 94.8921 29.5903 94.5418L16.9999 91.4219L21.803 80.4131C21.803 80.4131 22.5587 80.6129 23.5748 80.8775C25.5856 81.4013 28.6159 82.1792 28.8248 82.1652C28.829 82.1649 28.8321 82.1643 28.834 82.1634C28.8365 82.1621 28.8369 82.1603 28.8353 82.1579C31.5744 82.8318 32.7895 81.0568 33.269 79.8735L39.5959 54.6592C39.8331 54.7159 40.0654 54.7738 40.2895 54.8297C40.4013 54.8575 40.511 54.8849 40.6182 54.9113C40.2325 54.7579 39.8824 54.6593 39.6124 54.5908L44.1261 36.5916C44.167 35.8856 44.1093 35.116 43.8547 34.3708C43.3722 32.9588 42.1828 31.6346 39.6179 30.9982C39.6205 30.9965 39.621 30.9944 39.6195 30.9919C39.6178 30.989 39.6136 30.9856 39.6069 30.9816C39.502 30.9201 38.7926 30.7325 37.8623 30.5025C36.7961 30.2391 35.4396 29.92 34.3697 29.6714C33.3504 29.4345 32.5912 29.2615 32.5912 29.2615L35.1649 18.9896L48.5075 22.3013L48.4965 22.3506C50.5025 22.8464 52.5693 23.3175 54.6745 23.7941L58.6398 7.99996L68.3092 10.3967L64.4238 25.8814ZM50.7289 17.2737L31.2257 12.4329L25.9943 33.312L31.3885 34.5409L31.6898 34.6098C31.6935 34.6106 31.6972 34.6115 31.7009 34.6123L38.3138 36.2534C38.428 36.2817 38.5254 36.3101 38.6076 36.337L28.5312 76.5071L24.0093 75.3946C23.8006 75.3399 23.6233 75.2933 23.4874 75.2575L23.1878 75.1786L23.1868 75.1783L18.6972 73.9914L18.6592 74.0784L16.2722 73.4912L17.8919 75.8372L9.47241 95.135L28.2815 99.7959C28.2826 99.7961 28.2836 99.7964 28.2847 99.7967C28.8411 99.9353 29.3873 100.073 29.9283 100.212L25.9124 116.241L43.2972 120.552L46.0858 121.244L63.4839 125.554L67.5892 109.2C74.2616 110.117 80.723 110.207 86.4253 108.463C94.043 106.133 99.6574 100.744 102.783 91.868M50.7289 17.2737L54.7027 1.44556L74.8827 6.44762L92.2811 10.7583L88.1695 27.1521C92.8359 29.1108 97.1874 31.6022 100.514 34.9359C105.205 39.6359 107.64 45.8141 106.494 53.4299C105.728 58.5642 103.837 62.8147 100.807 66.0462C100.27 66.6193 99.7074 67.1487 99.124 67.6368C100.709 69.3037 102.045 71.2188 103.019 73.4302C105.399 78.8333 105.191 85.033 102.783 91.8668M73.7815 82.1222L73.7822 82.1195C74.1342 80.7166 73.8506 79.8876 73.1957 79.0547C72.3402 77.9667 70.7079 76.7891 68.2065 75.6605C65.0905 74.2548 61.6261 73.3254 58.5301 72.5983L55.8204 83.3963C58.8814 84.146 62.3906 84.8746 65.7636 85.0493C68.531 85.1925 70.5779 84.9079 71.8886 84.3397C72.9195 83.8927 73.4826 83.3164 73.7815 82.1222ZM49.6826 87.4117C49.535 87.3741 49.3931 87.3384 49.257 87.3049L54.5698 66.1337C54.5697 66.1336 54.57 66.1337 54.5698 66.1337C55.2289 66.2972 56.0346 66.4769 56.9468 66.6804C65.1118 68.5016 81.8448 72.234 79.034 83.4372C76.291 94.3942 59.0376 89.8643 51.1432 87.7916C50.6114 87.652 50.1221 87.5235 49.6826 87.4117ZM75.3781 52.9729C76.0323 52.6568 76.4975 52.2378 76.775 51.1327C77.0997 49.836 76.8366 49.1965 76.4433 48.6509C75.8758 47.8638 74.7098 46.9324 72.7353 46.0059C70.5121 44.9627 68.075 44.2599 65.7785 43.7028L63.5642 52.5296C65.8398 53.0637 68.3249 53.5292 70.7361 53.6172C72.9442 53.6978 74.4638 53.4146 75.3781 52.9729ZM57.2293 56.4999C57.1509 56.48 57.0745 56.4609 57.0002 56.4425L61.8171 37.2408C61.817 37.2408 61.8172 37.2408 61.8171 37.2408C62.3693 37.3776 63.0457 37.5265 63.8122 37.6951C70.6268 39.1947 84.5804 42.2653 82.0266 52.4515C79.5258 62.4101 65.1691 58.6015 58.5873 56.8555C58.0868 56.7227 57.6312 56.6019 57.2293 56.4999Z" fill="white" fill-opacity="0.1"/>
</svg>
